<?xml version="1.0" encoding="UTF-8"?>
<svg id="_レイヤー_1" data-name="レイヤー_1" xmlns="http://www.w3.org/2000/svg" version="1.1" viewBox="0 0 907.9 422.88">
  <!-- Generator: Adobe Illustrator 30.5.1, SVG Export Plug-In . SVG Version: 2.1.4 Build 3)  -->
  <defs>
    <style>
      .st0 {
        fill: #2c7b9d;
      }
    </style>
  </defs>
  <path class="st0" d="M224.69,151.71c45.44-46.83,153.08-61.55,153.98-145.99-17.71-9.5-58.83-2.27-80.98-2.28-53.22-.02-110.89-3.78-167.66-3.42-9.89,26.23-19.77,52.47-29.66,78.7,24.82,6.31,53.69,1.2,79.84,3.43.38.38.76.76,1.14,1.14v1.14c-14.89,12.51-101.52,61.16-104.93,70.71,10.59,20.84,16.2,63.36,33.08,74.14,24.35,11.31,75.42-7.07,93.52,7.98-15.3,17.26-45.61,27.12-66.15,38.78-48.2,25.41-96.14,53.8-136.87,90.1,34.59,81.76,55.67,63.06,114.06,19.39,50.18-34.21,100.38-68.43,150.56-102.65,20.05-12.76,55.01-26.54,67.3-46.76-.91-13.44-20.66-79.72-26.24-84.4h-80.99Z"/>
  <path class="st0" d="M655.83,152.85c-20.81-12.45-68.5-4.09-96.95-4.56,12.07-45.81,30.06-95.67,42.2-142.57-19.33-6.36-60.76-2.56-87.83-2.28-9.39,9.69-46.07,121.81-47.9,141.43-14.5,9.58-87.7,6.03-111.77,5.7-1.14,1.14-2.28,2.28-3.42,3.43,7.98,25.09,15.97,50.19,23.95,75.28,11.39,5.45,41.69,2.61,60.45,2.28.38.38.76.76,1.14,1.14-9.82,57.67-37.33,107.32-45.62,164.24,6.5,7.27,71.33,6.31,85.54,3.42,18.63-55.5,37.26-111.02,55.89-166.52,4.95-6.38,84.76-6.07,101.51-5.7,12.26-17.35,19.75-50.73,22.81-75.28h0Z"/>
  <path class="st0" d="M818.93,314.81l-1.14-1.14c29.84-99.28,58.57-198.92,90.11-297.69-.38-.76-.76-1.52-1.14-2.28-53.22-.76-106.46-1.52-159.68-2.28-6.84,3.56-16.26,3.39-23.95,3.42-5.72,13.13-30.42,63.33-19.39,75.28,24.27,5.17,53.27.24,79.84,3.42,11.81,24.14-20.26,49.57-17.1,71.86-25.37,75.94-41.28,153.49-54.75,230.39,8.01,5.12,118.02,9.53,127.74,3.42,7.93-4.98,22.67-70.23,21.67-76.42-11.22-6.15-23.18-8.56-42.2-7.99h-.01Z"/>
  <path class="st0" d="M660.39,313.67c-5.32,1.52-10.65,3.04-15.97,4.57-6.77,10.29-28.26,63.65-25.09,76.42,4.59,6.19,43.92,5.4,51.33,3.42,8.76-3.58,29.55-69.11,27.37-75.28-5.22-11.08-21.01-9.95-37.64-9.13h0Z"/>
</svg>