<?xml version="1.0" encoding="UTF-8"?>
<svg id="_レイヤー_1" data-name="レイヤー_1" xmlns="http://www.w3.org/2000/svg" version="1.1" viewBox="0 0 1816.17 293.38">
  <!-- Generator: Adobe Illustrator 30.5.1, SVG Export Plug-In . SVG Version: 2.1.4 Build 3)  -->
  <defs>
    <style>
      .st0 {
        fill: #3cc;
      }
    </style>
  </defs>
  <g>
    <path class="st0" d="M183.68,134.78c0,25.77-16.72,47.3-39.01,52.46,8.95,3.64,19.7,3.26,30.41-3.23,4.28-2.59,7.76-6.48,10.09-11.15,7.6-15.23,5.67-30.52-1.58-41.32.06,1.07.09,2.15.09,3.24Z"/>
    <path class="st0" d="M146.69,0C65.68,0,0,65.68,0,146.69s65.68,146.69,146.69,146.69,146.69-65.68,146.69-146.69S227.7,0,146.69,0ZM248.7,163.38s-1.67,2.06-20,7.55c-7.16,2.14-14.79,2.07-17.33,1.97-3.83,13.02-11.63,24.11-21.85,31.59,6.66,5.39,16.88,9.75,16.88,9.75,1.09.47,1.07,1.17-.05,1.55l-5.53,1.92,10.28,13.43c.75.98.41,1.81-.77,1.85,0,0-2.53.08-18.7-10.79-5.09-3.42-10.37-8.52-13.23-11.44-6.12,2.54-12.75,3.93-19.69,3.93-1.84,0-3.67-.1-5.46-.29-3.22-.34-6.34,1.37-7.97,4.4-5.47,10.16-9.24,21.2-11.02,32.78-.63,4.12-4.96,6.14-8.16,3.82-23.1-16.77-38.71-41.78-41.11-70.68-.04-.53-.08-1.06-.12-1.6-1.54-23.49-8.54-38.75-25.58-47.64-2.05-1.07-10.06-2.86-14.37-3.94,12.42-38.09,33.9-51.12,64.8-52.82,6.32-.35,12.53.11,18.57,1.27,5.02-4.43,10.58-8.21,16.66-11.24,24.05-11.99,51.5-9.84,76.2,3.31,3.72,1.98,4.36,7.5,1.17,10.38-8.1,7.3-14.84,16.14-20.12,26.08-1.65,3.1-1.37,6.97.62,9.83,7.01,10.07,11.18,22.62,11.18,36.23,0,2.11-.1,4.2-.3,6.26,8.42-1.19,19.7-7.09,19.7-7.09,1.06-.55,1.51-.06,1.01,1.09l-2.47,5.71,16.05.95c1.17.07,1.5.91.72,1.87Z"/>
  </g>
  <g>
    <path d="M364.73,88.35h54.23l-8.64,46.06h59.25l8.64-46.06h54.47l-24.7,131.62h-54.47l9.99-53.24h-59.25l-9.99,53.24h-54.23l24.7-131.62Z"/>
    <path d="M589.25,88.35h54.35l-24.7,131.62h-54.35l24.7-131.62Z"/>
    <path d="M701.25,88.35h50.64l52.41,72.82,13.66-72.82h51.11l-24.7,131.62h-51.11l-52.16-72.27-13.56,72.27h-50.99l24.7-131.62Z"/>
    <path d="M1010.76,198.24h-61.56l-12.63,21.73h-55.37l90.65-131.62h59.15l41.25,131.62h-56.79l-4.7-21.73ZM1004.85,169.78l-10.49-47.31-28.04,47.31h38.54Z"/>
    <path d="M1106.58,176.42l52.05-2.42c-.06,6.28,1.31,11.07,4.13,14.36,4.58,5.33,12.07,7.99,22.44,7.99,7.74,0,13.96-1.36,18.66-4.08,4.7-2.72,7.39-5.88,8.06-9.47.64-3.41-.78-6.46-4.27-9.16-3.49-2.69-12.27-5.24-26.34-7.63-23.03-4.01-38.99-9.34-47.88-15.98-8.97-6.64-12.49-15.11-10.55-25.41,1.27-6.76,5.08-13.15,11.44-19.17,6.35-6.02,15.1-10.74,26.24-14.19,11.14-3.44,25.85-5.16,44.12-5.16,22.42,0,38.93,3.13,49.53,9.38,10.6,6.26,15.73,16.21,15.41,29.85l-51.53,2.24c-.25-5.92-2.29-10.23-6.13-12.93-3.84-2.69-9.6-4.04-17.26-4.04-6.31,0-11.24,1-14.81,3.01-3.57,2.01-5.62,4.44-6.16,7.32-.39,2.1.57,3.98,2.89,5.66,2.23,1.74,7.99,3.35,17.29,4.85,22.98,3.83,39.23,7.71,48.75,11.63,9.52,3.92,16.07,8.78,19.65,14.59s4.69,12.3,3.35,19.48c-1.58,8.44-6.16,16.22-13.72,23.34-7.56,7.12-17.27,12.53-29.14,16.21-11.87,3.68-26.29,5.52-43.29,5.52-29.85,0-49.71-4.31-59.58-12.93-9.87-8.62-14.33-19.57-13.35-32.86Z"/>
    <path d="M1415.26,198.24h-61.56l-12.63,21.73h-55.37l90.65-131.62h59.15l41.25,131.62h-56.79l-4.7-21.73ZM1409.36,169.78l-10.49-47.31-28.04,47.31h38.54Z"/>
    <path d="M1537.31,88.35h54.23l-9.33,49.74,66.13-49.74h72.12l-73.36,49.68,51.54,81.94h-66.78l-26.84-54.13-32.15,22.01-6.03,32.12h-54.23l24.7-131.62Z"/>
    <path d="M1761.83,88.35h54.35l-24.7,131.62h-54.35l24.7-131.62Z"/>
  </g>
</svg>