<?xml version="1.0" encoding="UTF-8"?>
<svg id="_レイヤー_1" data-name="レイヤー_1" xmlns="http://www.w3.org/2000/svg" version="1.1" viewBox="0 0 1817.28 294.38">
  <!-- Generator: Adobe Illustrator 30.5.1, SVG Export Plug-In . SVG Version: 2.1.4 Build 3)  -->
  <defs>
    <style>
      .st0 {
        fill: #fff;
      }
    </style>
  </defs>
  <g>
    <g>
      <path class="st0" d="M156.93,189.55c-3.45,0-6.84-.57-10.09-1.71,22.02-5.92,37.84-27.75,37.84-52.56,0-.46,0-.93-.02-1.4,6.92,11.5,7.16,26.04.56,39.26-2.32,4.64-5.74,8.43-9.9,10.95-5.98,3.62-12.17,5.46-18.38,5.46h0Z"/>
      <path d="M185.17,135.81c5.89,11.07,5.8,24.67-.4,37.11-2.27,4.56-5.63,8.27-9.71,10.74-5.9,3.57-12,5.39-18.13,5.39-2.85,0-5.65-.4-8.37-1.18,21.25-6.53,36.4-27.84,36.62-52.06M184.09,132.05c.06,1.07.09,2.15.09,3.24,0,25.77-16.72,47.3-39.01,52.46,3.66,1.49,7.63,2.31,11.77,2.31,5.98,0,12.32-1.7,18.64-5.53,4.28-2.59,7.76-6.48,10.09-11.15,7.6-15.23,5.67-30.52-1.58-41.32h0Z"/>
    </g>
    <g>
      <path class="st0" d="M147.19,293.38C66.58,293.38,1,227.8,1,147.19S66.58,1,147.19,1s146.19,65.58,146.19,146.19-65.58,146.19-146.19,146.19ZM114.36,78.62c-1.38,0-2.79.04-4.17.11-34.19,1.87-53.71,17.77-65.25,53.16l-.17.51.52.13c.84.21,1.83.45,2.89.7,4.13,1,9.78,2.36,11.38,3.19,16.12,8.41,23.69,22.54,25.31,47.23.04.53.08,1.07.12,1.6,2.34,28.16,17.01,53.39,41.32,71.04.97.7,2.09,1.08,3.23,1.08,2.85,0,5.25-2.2,5.71-5.22,1.74-11.36,5.43-22.33,10.96-32.62,1.39-2.58,3.96-4.18,6.72-4.18.25,0,.51.01.76.04,1.83.19,3.69.29,5.52.29,6.73,0,13.31-1.29,19.57-3.84,2.81,2.85,8.04,7.88,13.07,11.27,15.73,10.57,18.69,10.88,18.98,10.88,1.02-.03,1.4-.53,1.54-.82.15-.31.29-.96-.38-1.83l-9.86-12.88,4.88-1.69c1.01-.35,1.18-.9,1.19-1.2.01-.3-.12-.86-1.11-1.29-.1-.04-9.72-4.18-16.25-9.28,10.05-7.53,17.62-18.53,21.4-31.09.47.01,1.06.03,1.74.03,3.21,0,9.47-.26,15.36-2.03,17.97-5.37,20.07-7.49,20.25-7.71.69-.85.56-1.5.42-1.82-.13-.3-.5-.81-1.51-.87l-15.33-.91,2.19-5.06c.3-.69.32-1.23.08-1.61-.17-.26-.46-.41-.81-.41-.28,0-.61.09-.97.28-.11.06-10.76,5.58-18.92,6.94.16-1.88.24-3.79.24-5.67,0-13.3-3.9-25.93-11.27-36.52-1.9-2.74-2.13-6.39-.58-9.31,5.34-10.06,12.07-18.78,20.01-25.94,1.64-1.47,2.44-3.72,2.16-6.02-.28-2.24-1.56-4.18-3.43-5.17-13.83-7.36-28.62-11.25-42.77-11.25-11.93,0-23.33,2.67-33.89,7.93-5.93,2.96-11.51,6.71-16.58,11.15-4.71-.9-9.51-1.35-14.28-1.35Z"/>
      <path d="M147.19,1.5c38.92,0,75.5,15.15,103.02,42.67,27.52,27.52,42.67,64.1,42.67,103.02s-15.15,75.5-42.67,103.02-64.1,42.67-103.02,42.67-75.5-15.15-103.02-42.67C16.65,222.69,1.5,186.11,1.5,147.19s15.15-75.5,42.67-103.02C71.69,16.65,108.27,1.5,147.19,1.5M128.49,79.43c-4.67-.87-9.42-1.31-14.13-1.31-1.39,0-2.8.04-4.2.12-34.43,1.89-54.08,17.89-65.7,53.5l-.33,1.02,1.04.26c.84.21,1.82.45,2.87.7,4.11.99,9.74,2.35,11.28,3.15,15.94,8.32,23.43,22.32,25.04,46.82.04.54.08,1.07.12,1.61,2.35,28.31,17.1,53.67,41.52,71.4,1.05.77,2.28,1.17,3.53,1.17,3.1,0,5.7-2.37,6.21-5.65,1.73-11.3,5.4-22.22,10.91-32.46,1.3-2.42,3.71-3.92,6.28-3.92.23,0,.47.01.71.04,1.85.2,3.72.3,5.57.3,6.68,0,13.22-1.26,19.45-3.75,2.88,2.9,7.98,7.78,12.91,11.09,15.13,10.17,18.56,10.96,19.29,10.96h0c.93-.03,1.64-.43,1.96-1.11.33-.7.17-1.56-.43-2.35l-9.44-12.33,4.22-1.46c1.29-.45,1.51-1.23,1.52-1.65.01-.43-.15-1.22-1.41-1.76-.1-.04-9.16-3.94-15.62-8.82,9.78-7.51,17.17-18.29,20.94-30.58.44.01.9.02,1.37.02,3.95,0,9.85-.36,15.51-2.05,17.73-5.3,20.18-7.49,20.49-7.88.63-.77.8-1.62.49-2.33-.3-.68-1.01-1.11-1.93-1.16l-14.62-.87,1.91-4.4c.37-.85.38-1.55.04-2.08-.27-.4-.71-.64-1.23-.64-.36,0-.77.11-1.2.34-.11.06-10.15,5.27-18.14,6.78.13-1.68.19-3.38.19-5.06,0-13.41-3.93-26.13-11.36-36.8-1.8-2.58-2.02-6.03-.55-8.79,5.31-10,12.01-18.69,19.9-25.8,1.76-1.58,2.62-4,2.32-6.45-.3-2.4-1.68-4.48-3.69-5.55-13.9-7.4-28.77-11.31-43-11.31-12,0-23.48,2.69-34.11,7.99-5.9,2.94-11.45,6.66-16.5,11.06M147.19.5C66.18.5.5,66.18.5,147.19s65.68,146.69,146.69,146.69,146.69-65.68,146.69-146.69S228.2.5,147.19.5h0ZM128.78,80.5c5.02-4.43,10.58-8.21,16.66-11.24,10.73-5.35,22.13-7.88,33.66-7.88,14.32,0,28.85,3.91,42.53,11.19,3.72,1.98,4.36,7.5,1.17,10.38-8.1,7.3-14.84,16.14-20.12,26.08-1.65,3.1-1.37,6.97.62,9.83,7.01,10.07,11.18,22.62,11.18,36.23,0,2.11-.1,4.2-.3,6.26,8.42-1.19,19.7-7.09,19.7-7.09.29-.15.54-.23.74-.23.5,0,.64.49.28,1.32l-2.47,5.71,16.05.95c1.17.07,1.5.91.72,1.87,0,0-1.67,2.06-20,7.55-5.72,1.71-11.73,2.01-15.22,2.01-.88,0-1.6-.02-2.11-.04-3.83,13.02-11.63,24.11-21.85,31.59,6.66,5.39,16.88,9.75,16.88,9.75,1.09.47,1.07,1.16-.05,1.55l-5.53,1.92,10.28,13.43c.75.98.41,1.81-.77,1.85h0c-.07,0-2.75-.08-18.7-10.79-5.09-3.42-10.37-8.52-13.23-11.44-6.12,2.54-12.75,3.93-19.69,3.93-1.84,0-3.67-.1-5.46-.29-.27-.03-.54-.04-.81-.04-2.92,0-5.67,1.67-7.16,4.45-5.47,10.16-9.24,21.2-11.02,32.78-.45,2.93-2.77,4.8-5.22,4.8-1,0-2.02-.31-2.94-.98-23.1-16.77-38.71-41.78-41.11-70.68-.04-.53-.08-1.06-.12-1.6-1.54-23.49-8.54-38.75-25.58-47.64-2.05-1.07-10.06-2.86-14.37-3.94,12.42-38.09,33.9-51.12,64.8-52.82,1.39-.08,2.77-.11,4.14-.11,4.89,0,9.71.48,14.42,1.39h0Z"/>
    </g>
  </g>
  <g>
    <g>
      <polygon class="st0" points="454.62 219.97 464.61 166.73 404.34 166.73 394.35 219.97 341.14 219.97 365.65 89.35 418.86 89.35 410.21 135.41 470.49 135.41 479.13 89.35 532.58 89.35 508.07 219.97 454.62 219.97"/>
      <path d="M531.97,89.85l-24.32,129.62h-52.43l9.77-52.05.22-1.18h-61.29l-.15.82-9.84,52.42h-52.19l24.32-129.62h52.19l-8.42,44.87-.22,1.18h61.29l.15-.82,8.49-45.24h52.43M533.18,88.85h-54.47l-8.64,46.06h-59.25l8.64-46.06h-54.23l-24.7,131.62h54.23l9.99-53.24h59.25l-9.99,53.24h54.47l24.7-131.62h0Z"/>
    </g>
    <g>
      <polygon class="st0" points="565.66 219.97 590.17 89.35 643.49 89.35 618.99 219.97 565.66 219.97"/>
      <path d="M642.89,89.85l-24.32,129.62h-52.31l24.32-129.62h52.31M644.1,88.85h-54.35l-24.7,131.62h54.35l24.7-131.62h0Z"/>
    </g>
    <g>
      <polygon class="st0" points="794.02 219.97 741.33 146.96 727.63 219.97 677.65 219.97 702.16 89.35 752.13 89.35 805.07 162.91 818.87 89.35 868.97 89.35 844.46 219.97 794.02 219.97"/>
      <path d="M868.37,89.85l-24.32,129.62h-49.77l-51.86-71.85-1.36-1.89-.43,2.29-13.41,71.45h-48.96l24.32-129.62h49.29l52.11,72.4,1.36,1.89.43-2.29,13.51-72h49.08M869.57,88.85h-51.11l-13.66,72.82-52.41-72.82h-50.64l-24.7,131.62h50.99l13.56-72.27,52.16,72.27h51.11l24.7-131.62h0Z"/>
    </g>
    <g>
      <path class="st0" d="M1016.36,219.97l-4.7-21.73h-62.25l-12.63,21.73h-54.13l89.96-130.62h58.52l40.93,130.62h-55.7ZM965.94,170.78h40.04l-10.9-49.16-29.14,49.16Z"/>
      <path d="M1030.77,89.85l40.62,129.62h-54.62l-4.53-20.94-.17-.79h-62.95l-.29.5-12.34,21.23h-52.89l89.28-129.62h57.89M965.06,171.28h41.54l-.27-1.22-10.49-47.31-.55-2.47-1.29,2.17-28.04,47.31-.89,1.51M1031.5,88.85h-59.15l-90.65,131.62h55.37l12.63-21.73h61.56l4.7,21.73h56.79l-41.25-131.62h0ZM966.81,170.28l28.04-47.31,10.49,47.31h-38.54Z"/>
    </g>
    <g>
      <path class="st0" d="M1180.01,222.21c-29.58,0-49.52-4.31-59.25-12.8-9.6-8.38-14.04-19.14-13.21-32l51.08-2.38c.02,6.13,1.45,10.89,4.25,14.17,4.66,5.42,12.34,8.17,22.82,8.17,7.8,0,14.16-1.4,18.91-4.15,4.81-2.79,7.6-6.09,8.3-9.81.67-3.59-.82-6.84-4.45-9.64-3.58-2.77-12.27-5.3-26.56-7.73-22.84-3.98-38.88-9.32-47.66-15.89-8.76-6.49-12.25-14.87-10.36-24.91,1.24-6.63,5.04-12.98,11.29-18.9,6.27-5.93,15.03-10.67,26.05-14.07,11.04-3.41,25.84-5.14,43.98-5.14,22.23,0,38.8,3.13,49.28,9.31,10.26,6.06,15.36,15.79,15.17,28.94l-50.57,2.2c-.35-5.81-2.47-10.12-6.32-12.82-3.91-2.74-9.82-4.13-17.54-4.13-6.36,0-11.43,1.03-15.05,3.07-3.69,2.07-5.84,4.65-6.41,7.66-.43,2.29.61,4.36,3.09,6.15,2.3,1.79,8.03,3.41,17.5,4.94,22.83,3.81,39.2,7.71,48.64,11.59,9.38,3.86,15.91,8.7,19.41,14.39,3.5,5.67,4.6,12.1,3.28,19.13-1.56,8.29-6.12,16.05-13.57,23.07-7.47,7.04-17.21,12.45-28.94,16.09-11.76,3.65-26.28,5.5-43.14,5.5Z"/>
      <path d="M1205.19,87.61c22.13,0,38.63,3.11,49.02,9.24,9.97,5.89,14.99,15.31,14.93,28.03l-49.61,2.16c-.44-5.72-2.63-9.99-6.5-12.7-4-2.8-10-4.22-17.83-4.22-6.45,0-11.6,1.05-15.3,3.14-3.82,2.15-6.06,4.84-6.65,8-.47,2.5.64,4.74,3.26,6.63,2.38,1.86,8.19,3.51,17.74,5.05,22.8,3.8,39.13,7.69,48.54,11.56,9.28,3.82,15.73,8.6,19.18,14.19,3.43,5.56,4.51,11.88,3.21,18.77-1.54,8.19-6.05,15.86-13.42,22.8-7.41,6.98-17.09,12.36-28.75,15.98-11.71,3.63-26.18,5.48-43,5.48-29.46,0-49.28-4.27-58.92-12.68-9.36-8.17-13.75-18.65-13.06-31.15l50.11-2.33c.1,6,1.56,10.69,4.37,13.97,4.76,5.53,12.57,8.34,23.2,8.34,7.89,0,14.33-1.42,19.16-4.22,4.94-2.86,7.82-6.28,8.54-10.15.71-3.79-.85-7.2-4.64-10.13-3.65-2.82-12.41-5.38-26.78-7.83-22.76-3.96-38.73-9.28-47.45-15.8-8.71-6.45-12.04-14.44-10.17-24.42,1.22-6.52,4.97-12.79,11.14-18.63,6.21-5.88,14.91-10.57,25.85-13.96,10.99-3.4,25.74-5.12,43.83-5.12M1205.19,86.61c-18.28,0-32.98,1.72-44.12,5.16-11.14,3.44-19.89,8.17-26.24,14.19-6.36,6.02-10.17,12.4-11.44,19.17-1.93,10.29,1.58,18.76,10.55,25.41,8.89,6.64,24.84,11.97,47.88,15.98,14.07,2.4,22.85,4.94,26.34,7.63,3.48,2.69,4.91,5.75,4.27,9.16-.67,3.59-3.36,6.75-8.06,9.47-4.7,2.72-10.92,4.08-18.66,4.08-10.38,0-17.86-2.66-22.44-7.99-2.82-3.29-4.19-8.08-4.13-14.36l-52.05,2.42c-.98,13.29,3.47,24.24,13.35,32.86,9.88,8.62,29.73,12.93,59.58,12.93,17,0,31.43-1.84,43.29-5.52,11.86-3.68,21.57-9.08,29.14-16.21,7.56-7.12,12.13-14.9,13.72-23.34,1.35-7.18.23-13.68-3.35-19.48s-10.13-10.67-19.65-14.59c-9.52-3.92-25.77-7.79-48.75-11.63-9.3-1.5-15.06-3.11-17.29-4.85-2.32-1.67-3.28-3.56-2.89-5.66.54-2.87,2.59-5.31,6.16-7.32,3.57-2,8.5-3.01,14.81-3.01,7.66,0,13.41,1.35,17.26,4.04,3.84,2.69,5.89,7,6.13,12.93l51.53-2.24c.33-13.65-4.81-23.6-15.41-29.85-10.6-6.25-27.11-9.38-49.53-9.38h0Z"/>
    </g>
    <g>
      <path class="st0" d="M1420.87,219.97l-4.7-21.73h-62.25l-12.63,21.73h-54.13l89.96-130.62h58.52l40.93,130.62h-55.7ZM1370.44,170.78h40.04l-10.9-49.16-29.14,49.16Z"/>
      <path d="M1435.27,89.85l40.62,129.62h-54.62l-4.53-20.94-.17-.79h-62.95l-.29.5-12.34,21.23h-52.89l89.28-129.62h57.89M1369.56,171.28h41.54l-.27-1.22-10.49-47.31-.55-2.47-1.29,2.17-28.04,47.31-.9,1.51M1436.01,88.85h-59.15l-90.65,131.62h55.37l12.63-21.73h61.56l4.7,21.73h56.79l-41.25-131.62h0ZM1371.32,170.28l28.04-47.31,10.49,47.31h-38.54Z"/>
    </g>
    <g>
      <polygon class="st0" points="1632.67 219.97 1605.71 165.6 1572.91 188.05 1566.93 219.97 1513.72 219.97 1538.23 89.35 1591.43 89.35 1581.98 139.76 1649.01 89.35 1719.33 89.35 1646.92 138.39 1698.23 219.97 1632.67 219.97"/>
      <path d="M1717.7,89.85l-70.66,47.85-.8.54.51.82,50.57,80.4h-64.35l-26.57-53.57-.51-1.03-.95.65-32.15,22.01-.34.23-.08.41-5.87,31.3h-52.19l24.32-129.62h52.19l-9.11,48.55-.48,2.53,2.06-1.55,65.87-49.54h68.53M1720.96,88.85h-72.12l-66.13,49.74,9.33-49.74h-54.23l-24.7,131.62h54.23l6.03-32.12,32.15-22.01,26.84,54.13h66.78l-51.54-81.94,73.36-49.68h0Z"/>
    </g>
    <g>
      <polygon class="st0" points="1738.24 219.97 1762.74 89.35 1816.07 89.35 1791.56 219.97 1738.24 219.97"/>
      <path d="M1815.47,89.85l-24.32,129.62h-52.31l24.32-129.62h52.31M1816.67,88.85h-54.35l-24.7,131.62h54.35l24.7-131.62h0Z"/>
    </g>
  </g>
</svg>