<?xml version="1.0" encoding="UTF-8"?>
<svg id="_レイヤー_1" data-name="レイヤー_1" xmlns="http://www.w3.org/2000/svg" version="1.1" viewBox="0 0 1037.17 1037.17">
  <!-- Generator: Adobe Illustrator 30.5.1, SVG Export Plug-In . SVG Version: 2.1.4 Build 3)  -->
  <defs>
    <style>
      .st0 {
        fill: #fff;
      }
    </style>
  </defs>
  <path class="st0" d="M649.34,476.48c0,91.11-59.11,167.21-137.92,185.47,31.63,12.86,69.64,11.53,107.51-11.4,15.11-9.15,27.43-22.89,35.67-39.42,26.86-53.85,20.04-107.89-5.58-146.08.21,3.78.32,7.6.32,11.44Z"/>
  <path class="st0" d="M518.59,0C232.18,0,0,232.18,0,518.59s232.18,518.59,518.59,518.59,518.59-232.18,518.59-518.59S804.99,0,518.59,0ZM879.23,577.6s-5.89,7.3-70.72,26.68c-25.31,7.57-52.27,7.3-61.28,6.95-13.53,46.03-41.11,85.24-77.25,111.67,23.55,19.06,59.67,34.47,59.67,34.47,3.86,1.65,3.79,4.12-.17,5.49l-19.56,6.78,36.35,47.47c2.65,3.47,1.43,6.41-2.71,6.53,0,0-8.93.28-66.11-38.16-18-12.1-36.66-30.13-46.77-40.44-21.63,8.96-45.09,13.89-69.61,13.89-6.52,0-12.96-.35-19.31-1.03-11.37-1.21-22.41,4.85-28.18,15.57-19.32,35.91-32.68,74.96-38.94,115.9-2.23,14.58-17.53,21.71-28.84,13.5-81.67-59.29-136.85-147.71-145.34-249.85-.16-1.88-.3-3.76-.42-5.64-5.46-83.05-30.2-136.98-90.43-168.42-7.24-3.78-35.58-10.12-50.81-13.91,43.92-134.66,119.85-180.73,229.1-186.72,22.36-1.22,44.3.37,65.64,4.51,17.74-15.65,37.4-29.04,58.89-39.75,85.01-42.38,182.05-34.77,269.37,11.69,13.16,7,15.42,26.53,4.14,36.7-28.64,25.81-52.47,57.06-71.12,92.19-5.82,10.97-4.85,24.66,2.18,34.75,24.8,35.61,39.51,79.98,39.51,128.08,0,7.47-.36,14.86-1.05,22.13,29.75-4.21,69.66-25.06,69.66-25.06,3.74-1.95,5.35-.21,3.59,3.87l-8.74,20.19,56.73,3.36c4.14.25,5.29,3.22,2.56,6.61Z"/>
</svg>